<?xml version="1.0" encoding="utf-8"?>
<!-- Generator: Adobe Illustrator 15.0.0, SVG Export Plug-In . SVG Version: 6.00 Build 0)  -->
<!DOCTYPE svg PUBLIC "-//W3C//DTD SVG 1.1//EN" "http://www.w3.org/Graphics/SVG/1.1/DTD/svg11.dtd">
<svg version="1.1" id="Layer_1" xmlns="http://www.w3.org/2000/svg" xmlns:xlink="http://www.w3.org/1999/xlink" x="0px" y="0px"
	 width="769.5px" height="21.5px" viewBox="0 0 769.5 21.5" enable-background="new 0 0 769.5 21.5" xml:space="preserve">
<g>
	<polygon fill="#FFFF00" stroke="#000000" stroke-miterlimit="10" points="251.555,0.5 243.112,0.5 222.112,21.5 230.555,21.5 	"/>
	<polygon fill="#FFFF00" stroke="#000000" stroke-miterlimit="10" points="227.555,0.5 219.112,0.5 198.112,21.5 206.555,21.5 	"/>
	<polygon fill="#FFFF00" stroke="#000000" stroke-miterlimit="10" points="275.555,0.5 267.112,0.5 246.112,21.5 254.555,21.5 	"/>
	<polygon fill="#FFFF00" stroke="#000000" stroke-miterlimit="10" points="347.555,0.5 339.112,0.5 318.112,21.5 326.555,21.5 	"/>
	<polygon fill="#FFFF00" stroke="#000000" stroke-miterlimit="10" points="371.555,0.5 363.111,0.5 342.112,21.5 350.555,21.5 	"/>
	<polygon fill="#FFFF00" stroke="#000000" stroke-miterlimit="10" points="395.555,0.5 387.112,0.5 366.112,21.5 374.555,21.5 	"/>
	<polygon fill="#FFFF00" stroke="#000000" stroke-miterlimit="10" points="299.555,0.5 291.112,0.5 270.112,21.5 278.555,21.5 	"/>
	<polygon fill="#FFFF00" stroke="#000000" stroke-miterlimit="10" points="323.555,0.5 315.112,0.5 294.112,21.5 302.555,21.5 	"/>
	<polygon fill="#FFFF00" stroke="#000000" stroke-miterlimit="10" points="203.555,0.5 195.112,0.5 174.112,21.5 182.555,21.5 	"/>
	<polygon fill="#FFFF00" stroke="#000000" stroke-miterlimit="10" points="179.555,0.5 171.112,0.5 150.112,21.5 158.555,21.5 	"/>
	<polygon fill="#FFFF00" stroke="#000000" stroke-miterlimit="10" points="58.555,0.5 50.112,0.5 29.112,21.5 37.555,21.5 	"/>
	<polygon fill="#FFFF00" stroke="#000000" stroke-miterlimit="10" points="82.555,0.5 74.112,0.5 53.112,21.5 61.555,21.5 	"/>
	<polygon fill="#FFFF00" stroke="#000000" stroke-miterlimit="10" points="5.112,21.5 13.555,21.5 34.555,0.5 26.112,0.5 	"/>
	<polygon fill="#FFFF00" stroke="#000000" stroke-miterlimit="10" points="106.555,0.5 98.112,0.5 77.112,21.5 85.555,21.5 	"/>
	<polygon fill="#FFFF00" stroke="#000000" stroke-miterlimit="10" points="155.555,0.5 146.112,0.5 125.112,21.5 134.555,21.5 	"/>
	<polygon fill="#FFFF00" stroke="#000000" stroke-miterlimit="10" points="130.555,0.5 122.112,0.5 101.112,21.5 109.555,21.5 	"/>
	<polygon fill="#FFFF00" stroke="#000000" stroke-miterlimit="10" points="659.767,0.5 651.324,0.5 630.324,21.5 638.767,21.5 	"/>
	<polygon fill="#FFFF00" stroke="#000000" stroke-miterlimit="10" points="683.767,0.5 675.324,0.5 654.324,21.5 662.767,21.5 	"/>
	<polygon fill="#FFFF00" stroke="#000000" stroke-miterlimit="10" points="707.767,0.5 699.324,0.5 678.324,21.5 686.767,21.5 	"/>
	<polygon fill="#FFFF00" stroke="#000000" stroke-miterlimit="10" points="731.767,0.5 723.324,0.5 702.324,21.5 710.767,21.5 	"/>
	<polygon fill="#FFFF00" stroke="#000000" stroke-miterlimit="10" points="635.767,0.5 627.324,0.5 606.324,21.5 614.767,21.5 	"/>
	<polygon fill="#FFFF00" stroke="#000000" stroke-miterlimit="10" points="755.767,0.5 747.324,0.5 726.324,21.5 734.767,21.5 	"/>
	<polygon fill="#FFFF00" stroke="#000000" stroke-miterlimit="10" points="611.767,0.5 603.324,0.5 582.324,21.5 590.767,21.5 	"/>
	<polygon fill="#FFFF00" stroke="#000000" stroke-miterlimit="10" points="750.324,21.5 769.5,21.5 769.5,2.324 	"/>
	<polygon fill="#FFFF00" stroke="#000000" stroke-miterlimit="10" points="10.555,0.5 0.5,0.5 0.5,10.555 	"/>
	<polygon fill="#FFFF00" stroke="#000000" stroke-miterlimit="10" points="563.767,0.5 555.324,0.5 534.324,21.5 542.767,21.5 	"/>
	<polygon fill="#FFFF00" stroke="#000000" stroke-miterlimit="10" points="491.767,0.5 483.112,0.5 462.112,21.5 470.767,21.5 	"/>
	<polygon fill="#FFFF00" stroke="#000000" stroke-miterlimit="10" points="587.767,0.5 579.324,0.5 558.324,21.5 566.767,21.5 	"/>
	<polygon fill="#FFFF00" stroke="#000000" stroke-miterlimit="10" points="443.555,0.5 435.111,0.5 414.111,21.5 422.555,21.5 	"/>
	<polygon fill="#FFFF00" stroke="#000000" stroke-miterlimit="10" points="467.555,0.5 459.112,0.5 438.112,21.5 446.555,21.5 	"/>
	<polygon fill="#FFFF00" stroke="#000000" stroke-miterlimit="10" points="419.555,0.5 411.112,0.5 390.112,21.5 398.555,21.5 	"/>
	<polygon fill="#FFFF00" stroke="#000000" stroke-miterlimit="10" points="515.767,0.5 507.324,0.5 486.324,21.5 494.767,21.5 	"/>
	<polygon fill="#FFFF00" stroke="#000000" stroke-miterlimit="10" points="539.767,0.5 531.324,0.5 510.324,21.5 518.767,21.5 	"/>
</g>
</svg>
